<svg xmlns="http://www.w3.org/2000/svg"
    width="24"
    height="24"
    viewBox="0 -960 960 960">

    <circle fill="#43A047" cx="50%" cy="-50%" r="50%" />

    <!--
        Make this match the Android icon exactly. Android adaptive icons take the inner (centered)
        2/3rds of the foreground's viewbox and crop out the rest [1].

        ic_foreground is at 1/2 scale and then cropped to 2/3rds of the original viewbox, so it
        takes up (1/2) / (2/3) = 3/4 of the cropped viewbox. In this SVG version, we don't crop.
        Instead, the full size icon is scaled down to 3/4 to match.

        [1] https://cs.android.com/android/platform/superproject/+/android-13.0.0_r31:frameworks/base/graphics/java/android/graphics/drawable/AdaptiveIconDrawable.java;l=106
    -->

    <g transform-origin="50% -50%" transform="scale(0.75 0.75)">
        <path
            fill="#ffffff"
            d="M292.31-60Q262-60 241-81q-21-21-21-51.31v-695.38Q220-858 241-879q21-21 51.31-21h375.38Q698-900 719-879q21 21 21 51.31v695.38Q740-102 719-81q-21 21-51.31 21H292.31ZM280-170v37.69q0 4.62 3.85 8.46 3.84 3.85 8.46 3.85h375.38q4.62 0 8.46-3.85 3.85-3.84 3.85-8.46V-170H280Zm0-60h400v-500H280v500Zm200-103.85L333.85-480 376-522.15l74 72.77v-176.77h60v176.77l74-72.77L626.15-480 480-333.85ZM280-790h400v-37.69q0-4.62-3.85-8.46-3.84-3.85-8.46-3.85H292.31q-4.62 0-8.46 3.85-3.85 3.84-3.85 8.46V-790Zm0 0v-50 50Zm0 620v50-50Z" />
    </g>
</svg>
